<?xml version="1.0" standalone="no"?>
<!DOCTYPE svg PUBLIC "-//W3C//DTD SVG 20010904//EN"
 "http://www.w3.org/TR/2001/REC-SVG-20010904/DTD/svg10.dtd">
<svg version="1.0" xmlns="http://www.w3.org/2000/svg"
 width="1280.000000pt" height="713.000000pt" viewBox="0 0 1280.000000 713.000000"
 preserveAspectRatio="xMidYMid meet">
<g transform="translate(0.000000,713.000000) scale(0.100000,-0.100000)"
fill="#000000" stroke="none">
<path d="M7517 7114 c-89 -9 -155 -21 -182 -33 -55 -24 -96 -84 -102 -149 -4
-41 -1 -53 29 -96 18 -27 49 -62 68 -77 67 -53 118 -60 560 -69 393 -8 495
-17 550 -45 28 -14 66 -85 138 -255 92 -217 131 -335 116 -350 -23 -23 -557
-32 -2317 -37 -1518 -4 -1850 -3 -1863 8 -17 14 -132 238 -164 319 -15 39 -17
50 -6 59 18 15 80 26 381 67 316 42 450 67 552 100 157 51 199 105 136 174
-59 63 -202 76 -918 86 -495 6 -828 -3 -892 -26 -18 -7 -35 -21 -39 -32 -25
-80 -18 -290 12 -353 24 -52 49 -59 161 -50 54 5 120 9 146 9 l48 1 140 -263
140 -264 -39 -61 c-110 -174 -825 -1264 -837 -1276 -11 -11 -22 -12 -57 -2
-410 109 -625 142 -937 143 -264 0 -500 -32 -748 -103 -269 -77 -713 -364
-973 -629 -276 -281 -492 -721 -576 -1170 -14 -74 -30 -157 -36 -185 -14 -72
-5 -381 16 -505 89 -543 316 -991 694 -1367 170 -169 371 -313 587 -421 130
-64 214 -97 431 -166 233 -74 276 -79 594 -73 424 10 556 34 870 159 220 88
353 164 525 303 107 86 442 426 534 540 169 210 288 449 355 710 28 110 56
262 56 305 0 45 20 53 163 61 209 13 1345 11 1352 -2 9 -13 9 -839 1 -866 -6
-18 -18 -21 -135 -26 -71 -4 -147 -13 -168 -19 -36 -12 -38 -15 -41 -60 -6
-89 32 -116 168 -125 90 -6 342 20 371 38 12 7 15 100 19 542 3 364 8 538 16
548 6 8 92 115 191 239 98 124 487 614 863 1090 766 969 1182 1489 1354 1693
132 155 146 162 189 100 51 -75 197 -406 261 -593 37 -110 61 -239 50 -274
-10 -34 -35 -56 -99 -88 -94 -47 -199 -131 -341 -273 -134 -134 -278 -301
-376 -437 -225 -312 -403 -916 -385 -1302 20 -424 261 -1054 545 -1425 112
-146 364 -362 577 -496 286 -179 642 -303 995 -345 187 -23 268 -23 445 0 310
40 529 102 769 218 246 119 426 241 590 401 376 366 643 830 706 1226 39 243
56 544 41 694 -32 295 -47 364 -122 554 -320 803 -992 1374 -1781 1511 -185
32 -318 36 -726 21 -215 -8 -396 -13 -404 -10 -7 3 -116 263 -242 578 -483
1206 -704 1727 -778 1830 -30 42 -74 57 -217 73 -166 18 -810 17 -1004 -2z
m747 -1563 c144 -12 201 -25 209 -45 3 -8 -10 -41 -30 -74 -69 -117 -460 -635
-748 -992 -78 -96 -223 -280 -323 -408 -213 -273 -950 -1172 -961 -1172 -23 0
-31 560 -8 577 6 6 53 13 102 16 110 7 177 29 210 69 27 32 30 52 15 92 -22
59 -139 81 -374 70 l-159 -6 7 -247 c3 -135 9 -321 12 -413 6 -140 4 -168 -7
-168 -18 0 -1392 2688 -1384 2708 4 12 244 13 1658 9 1053 -3 1699 -9 1781
-16z m-3878 -269 c20 -13 103 -132 168 -241 63 -105 794 -1398 998 -1766 117
-210 302 -560 324 -613 29 -71 79 -66 -588 -59 -473 5 -604 9 -613 19 -6 7
-26 69 -44 137 -45 177 -89 291 -191 496 -150 303 -343 577 -633 898 -56 61
-78 93 -74 106 9 34 619 1031 630 1031 7 0 17 -4 23 -8z m6254 -1077 c273 -18
395 -40 539 -97 292 -116 622 -391 869 -722 70 -93 123 -184 194 -334 110
-231 131 -330 149 -685 10 -192 9 -239 -5 -331 -46 -311 -227 -639 -550 -1000
-271 -301 -709 -523 -1145 -581 -869 -116 -1748 443 -2031 1292 -63 191 -81
293 -87 503 -5 201 4 288 53 508 90 402 229 647 541 953 195 191 249 229 324
229 62 0 113 -56 166 -186 23 -54 118 -283 211 -509 94 -225 202 -489 242
-585 142 -345 237 -501 324 -530 33 -10 42 -9 84 12 59 29 86 70 102 151 23
125 -19 280 -165 602 -111 246 -418 1060 -455 1208 -14 53 -7 67 43 93 71 37
159 39 597 9z m-7985 -80 c125 -17 263 -47 372 -80 64 -20 83 -30 83 -44 0
-25 -152 -270 -492 -787 -428 -652 -506 -783 -548 -916 -29 -90 -21 -110 65
-153 l60 -30 1013 -3 1012 -3 0 -37 c0 -52 -24 -191 -50 -292 -46 -180 -135
-370 -242 -515 -73 -99 -237 -258 -348 -337 -377 -268 -995 -428 -1458 -377
-781 86 -1407 627 -1588 1374 -38 160 -54 296 -54 482 0 190 10 282 45 423
161 641 707 1131 1417 1275 228 46 476 53 713 20z m1028 -467 c220 -220 318
-358 404 -568 64 -158 126 -446 102 -476 -7 -8 -144 -13 -447 -18 -240 -3
-560 -9 -709 -12 -242 -6 -273 -5 -279 9 -7 19 744 1217 763 1217 7 0 82 -69
166 -152z"/>
</g>
</svg>
