<?xml version="1.0" standalone="no"?>
<!DOCTYPE svg PUBLIC "-//W3C//DTD SVG 20010904//EN"
 "http://www.w3.org/TR/2001/REC-SVG-20010904/DTD/svg10.dtd">
<svg version="1.0" xmlns="http://www.w3.org/2000/svg"
 width="869.000000pt" height="1280.000000pt" viewBox="0 0 869.000000 1280.000000"
 preserveAspectRatio="xMidYMid meet">
<g transform="translate(0.000000,1280.000000) scale(0.100000,-0.100000)"
fill="#000000" stroke="none">
<path d="M4490 12797 c-3 -3 -42 -10 -87 -17 -543 -74 -960 -464 -1047 -979
-63 -374 55 -746 323 -1011 227 -225 494 -342 817 -357 594 -28 1104 345 1245
910 29 116 36 333 16 452 -42 240 -144 440 -314 616 -189 196 -418 315 -708
366 -96 17 -237 28 -245 20z"/>
<path d="M4330 10193 c-174 -27 -318 -72 -462 -143 -125 -62 -2539 -1720
-2614 -1796 -86 -87 -102 -132 -248 -694 -74 -283 -194 -740 -267 -1015 -128
-480 -133 -504 -134 -601 0 -96 2 -103 38 -176 126 -255 477 -355 757 -215 84
41 197 152 233 227 29 59 35 82 307 1135 119 462 186 706 198 717 42 41 836
578 844 570 10 -10 -1287 -4897 -1309 -4932 -9 -14 -358 -513 -777 -1110 -418
-597 -775 -1108 -792 -1137 -38 -63 -94 -228 -101 -298 -7 -62 32 -216 76
-304 83 -163 257 -302 456 -364 44 -14 130 -32 190 -42 101 -15 117 -15 198
-1 140 25 207 44 292 86 98 49 202 127 265 200 58 67 1698 2415 1785 2555 34
55 70 115 79 133 10 19 109 394 221 835 113 440 209 805 215 811 6 6 17 3 32
-11 89 -79 1716 -1593 1725 -1605 13 -15 45 -154 393 -1707 94 -420 182 -790
194 -821 89 -218 300 -392 546 -450 47 -11 104 -24 128 -30 64 -15 129 -12
243 11 189 38 306 89 422 184 152 126 231 278 243 470 l6 90 -296 1329 c-163
730 -305 1353 -316 1383 -10 30 -30 73 -44 96 -13 23 -511 531 -1105 1129
-681 684 -1081 1093 -1081 1105 0 30 538 2035 549 2046 12 12 20 -1 273 -430
159 -271 215 -358 259 -402 48 -47 199 -139 968 -589 501 -293 937 -545 968
-558 170 -75 390 -70 546 13 65 35 167 135 197 193 24 47 60 167 60 200 0 12
-12 57 -26 100 -29 92 -83 170 -154 224 -26 20 -421 255 -877 522 -455 267
-833 490 -840 497 -6 7 -287 476 -623 1044 -572 964 -617 1038 -692 1118 -193
206 -461 350 -743 399 -83 15 -335 20 -405 9z"/>
</g>
</svg>
